<svg width="24" height="24" viewBox="0 0 24 24" fill="none" xmlns="http://www.w3.org/2000/svg">
<path opacity="0.977974" d="M6.99073 2.99835C4.78172 2.99835 2.99072 4.78935 2.99072 6.99835V16.9983C2.99072 19.2073 4.78172 20.9983 6.99073 20.9983H16.9907C19.1997 20.9983 20.9907 19.2073 20.9907 16.9983V12.9983C20.9907 12.4463 20.5427 11.9983 19.9907 11.9983C19.4387 11.9983 18.9907 12.4463 18.9907 12.9983V16.9983C18.9907 18.1033 18.0957 18.9983 16.9907 18.9983H6.99073C5.88572 18.9983 4.99072 18.1033 4.99072 16.9983V6.99835C4.99072 5.89335 5.88572 4.99835 6.99073 4.99835H14.9907C15.5427 4.99835 15.9907 4.55035 15.9907 3.99835C15.9907 3.44635 15.5427 2.99835 14.9907 2.99835H6.99073ZM20.9907 3.99835C20.7347 3.99835 20.4667 4.08836 20.2717 4.27936L11.5527 12.8423C11.2957 13.0953 11.0367 13.0773 10.8347 12.7793L9.83472 11.3103C9.52872 10.8594 8.88673 10.7283 8.42873 11.0293C7.96973 11.3303 7.84073 11.9533 8.14673 12.4043L9.14673 13.8733C10.0477 15.2023 11.8107 15.3783 12.9597 14.2483L21.7097 5.65435C22.0997 5.27135 22.0997 4.66336 21.7097 4.27936C21.5147 4.08736 21.2467 3.99835 20.9907 3.99835Z" fill="#078300"/>
</svg>
