<svg width="28" height="28" viewBox="0 0 28 28" fill="none" xmlns="http://www.w3.org/2000/svg">
<path d="M3.5 7.00004H5.83333M5.83333 7.00004H24.5M5.83333 7.00004V23.3334C5.83333 23.9522 6.07917 24.5457 6.51675 24.9833C6.95434 25.4209 7.54783 25.6667 8.16667 25.6667H19.8333C20.4522 25.6667 21.0457 25.4209 21.4832 24.9833C21.9208 24.5457 22.1667 23.9522 22.1667 23.3334V7.00004M9.33333 7.00004V4.66671C9.33333 4.04787 9.57917 3.45438 10.0168 3.01679C10.4543 2.57921 11.0478 2.33337 11.6667 2.33337H16.3333C16.9522 2.33337 17.5457 2.57921 17.9832 3.01679C18.4208 3.45438 18.6667 4.04787 18.6667 4.66671V7.00004M11.6667 12.8334V19.8334M16.3333 12.8334V19.8334" stroke="#534DFA" stroke-width="2" stroke-linecap="round" stroke-linejoin="round"/>
</svg>
